<?xml version="1.0" encoding="utf-8"?>
<!-- Generator: Adobe Illustrator 16.0.0, SVG Export Plug-In . SVG Version: 6.00 Build 0)  -->
<!DOCTYPE svg PUBLIC "-//W3C//DTD SVG 1.1//EN" "http://www.w3.org/Graphics/SVG/1.1/DTD/svg11.dtd">
<svg version="1.1" id="Layer_1" xmlns="http://www.w3.org/2000/svg" xmlns:xlink="http://www.w3.org/1999/xlink" x="0px" y="0px"
	 width="32.387px" height="26.32px" viewBox="0 0 32.387 26.32" enable-background="new 0 0 32.387 26.32" xml:space="preserve">
<path display="none" fill="#FFCE00" d="M32.387,3.105c-1.193,0.53-2.473,0.888-3.816,1.047c1.371-0.821,2.425-2.123,2.921-3.677
	c-1.283,0.762-2.705,1.316-4.22,1.613c-1.213-1.29-2.938-2.099-4.848-2.099c-3.67,0-6.648,2.977-6.648,6.646
	c0,0.521,0.062,1.027,0.177,1.516C10.429,7.873,5.531,5.224,2.256,1.208C1.685,2.188,1.354,3.33,1.354,4.549
	c0,2.304,1.174,4.338,2.958,5.53c-1.09-0.033-2.115-0.334-3.011-0.831v0.084c0,3.218,2.29,5.903,5.33,6.515
	c-0.561,0.152-1.146,0.234-1.75,0.234c-0.429,0-0.846-0.042-1.252-0.122c0.846,2.641,3.301,4.563,6.208,4.615
	c-2.275,1.781-5.139,2.845-8.252,2.845c-0.536,0-1.065-0.032-1.586-0.092c2.94,1.885,6.435,2.983,10.186,2.983
	c12.221,0,18.905-10.123,18.905-18.905c0-0.287-0.006-0.575-0.019-0.858C30.37,5.61,31.497,4.439,32.387,3.105"/>
<path id="f_1_" fill="#FFCE00" d="M18.248,26.309V14.795h4.936l0.822-4.935h-5.758V7.393c0-1.645,0.824-2.467,2.467-2.467h2.469
	v-4.934c-0.822,0-2.664,0-4.113,0c-4.111,0-5.756,2.467-5.756,6.579v3.29H8.38v4.935h4.935v11.514H18.248z"/>
<g display="none">
	<rect x="3.009" y="7.382" display="inline" fill="#FFCE00" width="5.768" height="18.953"/>
	<path display="inline" fill="#FFCE00" d="M22.787,7.382c-3.299,0-4.213,1.081-4.946,2.472V7.382h-5.768v18.953h5.768V15.622
		c0-1.647,0-3.296,2.884-3.296c2.885,0,2.885,1.649,2.885,3.296v10.713h5.768V15.622C29.377,10.678,28.553,7.382,22.787,7.382z"/>
	<circle display="inline" fill="#FFCE00" cx="5.893" cy="2.85" r="2.884"/>
</g>
</svg>
