<?xml version="1.0" encoding="utf-8"?>
<!-- Generator: Adobe Illustrator 16.0.0, SVG Export Plug-In . SVG Version: 6.00 Build 0)  -->
<!DOCTYPE svg PUBLIC "-//W3C//DTD SVG 1.1//EN" "http://www.w3.org/Graphics/SVG/1.1/DTD/svg11.dtd">
<svg version="1.1" id="Layer_1" xmlns="http://www.w3.org/2000/svg" xmlns:xlink="http://www.w3.org/1999/xlink" x="0px" y="0px"
	 width="32.387px" height="26.321px" viewBox="0 0 32.387 26.321" enable-background="new 0 0 32.387 26.321" xml:space="preserve">
<path fill="#FFCE00" d="M32.387,3.115c-1.193,0.531-2.473,0.888-3.816,1.047c1.371-0.821,2.424-2.123,2.92-3.676
	c-1.283,0.761-2.705,1.316-4.219,1.613C26.059,0.809,24.333,0,22.424,0c-3.67,0-6.648,2.977-6.648,6.646
	c0,0.52,0.061,1.027,0.176,1.515C10.429,7.883,5.531,5.235,2.256,1.218C1.685,2.198,1.354,3.34,1.354,4.559
	c0,2.304,1.174,4.338,2.958,5.53c-1.09-0.033-2.115-0.334-3.011-0.831v0.084c0,3.218,2.29,5.902,5.33,6.515
	c-0.56,0.152-1.145,0.234-1.75,0.234c-0.429,0-0.846-0.042-1.252-0.122c0.846,2.641,3.301,4.562,6.208,4.615
	c-2.275,1.781-5.139,2.845-8.252,2.845c-0.536,0-1.065-0.032-1.586-0.092c2.941,1.885,6.435,2.984,10.186,2.984
	c12.221,0,18.905-10.124,18.905-18.905c0-0.287-0.006-0.575-0.018-0.858C30.37,5.62,31.497,4.449,32.387,3.115"/>
</svg>
