<svg id="Layer_1" data-name="Layer 1" xmlns="http://www.w3.org/2000/svg" viewBox="0 0 252.74 372.73"><defs><style>.cls-1{font-size:18.97px;}.cls-1,.cls-2,.cls-3{fill:#000b4a;font-family:Copperplate;}.cls-2{font-size:312.16px;letter-spacing:0.15em;}.cls-3{font-size:310.18px;letter-spacing:0.15em;}</style></defs><text class="cls-1" transform="matrix(0.1, -0.82, 0.99, 0.12, 25.84, 146.97)">A</text><text class="cls-1" transform="matrix(0.26, -0.78, 0.95, 0.32, 27.42, 134.95)">C</text><text class="cls-1" transform="matrix(0.41, -0.71, 0.87, 0.5, 31.81, 122.72)">A</text><text class="cls-1" transform="matrix(0.54, -0.62, 0.76, 0.65, 38.05, 112.24)">D</text><text class="cls-1" transform="matrix(0.64, -0.52, 0.63, 0.77, 46.75, 102.48)">E</text><text class="cls-1" transform="matrix(0.72, -0.4, 0.49, 0.87, 56.27, 94.79)">M</text><text class="cls-1" transform="matrix(0.77, -0.28, 0.34, 0.94, 69.36, 87.81)">Y</text><text class="cls-1" transform="matrix(0.8, -0.2, 0.24, 0.97, 80.26, 84.1)"> </text><text class="cls-1" transform="matrix(0.81, -0.1, 0.12, 0.99, 86.82, 82.42)">C</text><text class="cls-1" transform="translate(99.93 81.09) rotate(-1.27) scale(0.8  1)">I</text><text class="cls-1" transform="translate(107.18 80.98) rotate(5.5) scale(0.8  1)">T</text><text class="cls-1" transform="matrix(0.8, 0.19, -0.23, 0.97, 118.58, 82.2)">Y</text><text class="cls-1" transform="translate(129.75 85.05) rotate(19.33) scale(0.8  1)"> </text><text class="cls-2" transform="translate(27.47 287.51) scale(0.8  1)">A</text><text class="cls-3" transform="matrix(0.84, -0.07, 0.08, 1, 19.38, 257.93)">C</text></svg>